<?xml version="1.0" encoding="utf-8"?>
<!-- Generator: Adobe Illustrator 16.0.0, SVG Export Plug-In . SVG Version: 6.00 Build 0)  -->
<!DOCTYPE svg PUBLIC "-//W3C//DTD SVG 1.1//EN" "http://www.w3.org/Graphics/SVG/1.1/DTD/svg11.dtd">
<svg version="1.1" id="Layer_1" xmlns="http://www.w3.org/2000/svg" xmlns:xlink="http://www.w3.org/1999/xlink" x="0px" y="0px"
	 width="650px" height="350px" viewBox="0 0 650 350" enable-background="new 0 0 650 350" xml:space="preserve">
<desc>Created with Raphaël</desc>
<path fill="none" stroke="#DDDDDD" d="M50.5,10.5v290"/>
<path opacity="0.3" stroke="#FFFFFF" stroke-miterlimit="10" d="M97.5,10.5v290"/>
<path opacity="0.3" stroke="#FFFFFF" stroke-miterlimit="10" d="M145.5,10.5v290"/>
<path opacity="0.3" stroke="#FFFFFF" stroke-miterlimit="10" d="M192.5,10.5v290"/>
<path opacity="0.3" stroke="#FFFFFF" stroke-miterlimit="10" d="M240.5,10.5v290"/>
<path opacity="0.3" stroke="#FFFFFF" stroke-miterlimit="10" d="M287.5,10.5v290"/>
<path opacity="0.3" stroke="#FFFFFF" stroke-miterlimit="10" d="M335.5,10.5v290"/>
<path opacity="0.3" stroke="#FFFFFF" stroke-miterlimit="10" d="M382.5,10.5v290"/>
<path opacity="0.3" stroke="#FFFFFF" stroke-miterlimit="10" d="M430.5,10.5v290"/>
<path opacity="0.3" stroke="#FFFFFF" stroke-miterlimit="10" d="M477.5,10.5v290"/>
<path opacity="0.3" stroke="#FFFFFF" stroke-miterlimit="10" d="M525.5,10.5v290"/>
<path fill="none" stroke="#DDDDDD" d="M572.5,10.5v290"/>
<path fill="none" stroke="#DDDDDD" stroke-dasharray="1,3" d="M50.5,22.5h522"/>
<path fill="none" stroke="#DDDDDD" stroke-dasharray="1,3" d="M50.5,40.667h522"/>
<path fill="none" stroke="#DDDDDD" stroke-dasharray="1,3" d="M50.5,59.333h522"/>
<path fill="none" stroke="#DDDDDD" stroke-dasharray="1,3" d="M50.5,78.5h522"/>
<path fill="none" stroke="#DDDDDD" stroke-dasharray="1,3" d="M50.5,96.667h522"/>
<path fill="none" stroke="#DDDDDD" stroke-dasharray="1,3" d="M50.5,115.333h522"/>
<path fill="none" stroke="#DDDDDD" stroke-dasharray="1,3" d="M50.5,134.5h522"/>
<path fill="none" stroke="#DDDDDD" stroke-dasharray="1,3" d="M50.5,152.667h522"/>
<path fill="none" stroke="#DDDDDD" stroke-dasharray="1,3" d="M50.5,171.333h522"/>
<path fill="none" stroke="#DDDDDD" stroke-dasharray="1,3" d="M50.5,190.5h522"/>
<path fill="none" stroke="#DDDDDD" stroke-dasharray="1,3" d="M50.5,208.666h522"/>
<path fill="none" stroke="#DDDDDD" stroke-dasharray="1,3" d="M50.5,227.334h522"/>
<path fill="none" stroke="#DDDDDD" stroke-dasharray="1,3" d="M50.5,246.5h522"/>
<path fill="none" stroke="#DDDDDD" stroke-dasharray="1,3" d="M50.5,262.666h522"/>
<path stroke="#FFFFFF" stroke-miterlimit="10" d="M50.5,10.5v290"/>
<path stroke="#FFFFFF" stroke-miterlimit="10" d="M572.5,10.5v290"/>
<path stroke="#FFFFFF" stroke-miterlimit="10" d="M50.5,300.5h522"/>
<text transform="matrix(1 0 0 1 42.438 315.5)" fill="#FFFFFF" font-family="'ArialMT'" font-size="10">Jan</text>
<text transform="matrix(1 0 0 1 136.8887 315.5)" fill="#FFFFFF" font-family="'ArialMT'" font-size="10">Mar</text>
<text transform="matrix(1 0 0 1 251.438 315.5)" fill="#FFFFFF" font-family="'Arial-BoldMT'" font-size="14">Jun</text>
<text transform="matrix(1 0 0 1 421.6035 315.5)" fill="#FFFFFF" font-family="'ArialMT'" font-size="10">Sep</text>
<text transform="matrix(1 0 0 1 563.6074 315.5)" fill="#FFFFFF" font-family="'ArialMT'" font-size="10">Dec</text>
<text transform="matrix(1 0 0 1 29.938 64.833)" fill="#FFFFFF" font-family="'ArialMT'" font-size="10">26</text>
<text transform="matrix(1 0 0 1 29.938 102.167)" fill="#FFFFFF" font-family="'ArialMT'" font-size="10">22</text>
<text transform="matrix(1 0 0 1 29.938 139.5)" fill="#FFFFFF" font-family="'ArialMT'" font-size="10">18</text>
<text transform="matrix(1 0 0 1 29.938 176.833)" fill="#FFFFFF" font-family="'ArialMT'" font-size="10">14</text>
<text transform="matrix(1 0 0 1 29.938 214.167)" fill="#FFFFFF" font-family="'ArialMT'" font-size="10">10</text>
<text transform="matrix(1 0 0 1 32.7192 251.5)" fill="#FFFFFF" font-family="'ArialMT'" font-size="10">6</text>
<text transform="matrix(1 0 0 1 32.7192 288.833)" fill="#FFFFFF" font-family="'ArialMT'" font-size="10">2</text>
<text transform="matrix(-1.836970e-016 -1 1 -1.836970e-016 14 188.3984)" fill="#FFFFFF" font-family="'ArialMT'" font-size="10">Temperature (°C)</text>
<path opacity="0.7" fill="none" stroke="#33CC99" stroke-width="4" stroke-linejoin="round" enable-background="new    " d="
	M50.5,136.667l47,0.934l48,16.8l47,28.934l48,29.866l47,21.466l48,14.935l47-5.101l48-24.767l47-25.2l48-25.2l47-20.534"/>
<path opacity="0.2" enable-background="new    " d="M50.5,300.5"/>
<circle fill="#33CC99" stroke="#FFFFFF" cx="50.5" cy="136.667" r="4"/>
<circle fill="#33CC99" stroke="#FFFFFF" cx="97.5" cy="137.6" r="4"/>
<circle fill="#33CC99" stroke="#FFFFFF" cx="145.5" cy="154.4" r="4"/>
<circle fill="#33CC99" stroke="#FFFFFF" cx="192.5" cy="183.334" r="4"/>
<circle fill="#33CC99" stroke="#FFFFFF" cx="240.5" cy="213.2" r="4"/>
<circle fill="#33CC99" stroke="#FFFFFF" cx="287.5" cy="234.666" r="4"/>
<circle fill="#33CC99" stroke="#FFFFFF" cx="335.5" cy="249.6" r="4"/>
<circle fill="#33CC99" stroke="#FFFFFF" cx="382.5" cy="244.5" r="4"/>
<circle fill="#33CC99" stroke="#FFFFFF" cx="430.5" cy="219.732" r="4"/>
<circle fill="#33CC99" stroke="#FFFFFF" cx="477.5" cy="194.533" r="4"/>
<circle fill="#33CC99" stroke="#FFFFFF" cx="525.5" cy="169.333" r="4"/>
<circle fill="#33CC99" stroke="#FFFFFF" cx="572.5" cy="148.8" r="4"/>
<path display="none" fill="#FFFFFF" stroke="#474747" stroke-width="2" d="M15.5,10.5h90c2.761,0,5,2.239,5,5v30
	c0,2.761-2.239,5-5,5h-90c-2.762,0-5-2.239-5-5v-30C10.5,12.739,12.739,10.5,15.5,10.5z"/>
<path opacity="0.7" fill="none" stroke="#CC3311" stroke-width="4" stroke-linejoin="round" enable-background="new    " d="
	M50.5,29.333l47,9.333l48,12.133l47,21.467l48,29.867l47,22.4l48,2.8l47-16.8l48-29.867l47-19.6l48-10.267l47-17.733"/>
<path opacity="0.2" enable-background="new    " d="M50.5,300.5"/>
<circle fill="#CC3311" stroke="#FFFFFF" cx="50.5" cy="29.333" r="4"/>
<circle fill="#CC3311" stroke="#FFFFFF" cx="97.5" cy="38.667" r="4"/>
<circle fill="#CC3311" stroke="#FFFFFF" cx="145.5" cy="50.8" r="4"/>
<circle fill="#CC3311" stroke="#FFFFFF" cx="192.5" cy="72.267" r="4"/>
<circle fill="#CC3311" stroke="#FFFFFF" cx="240.5" cy="102.133" r="4"/>
<circle fill="#CC3311" stroke="#FFFFFF" cx="287.5" cy="124.533" r="4"/>
<circle fill="#CC3311" stroke="#FFFFFF" cx="335.5" cy="127.333" r="4"/>
<circle fill="#CC3311" stroke="#FFFFFF" cx="382.5" cy="110.533" r="4"/>
<circle fill="#CC3311" stroke="#FFFFFF" cx="430.5" cy="80.667" r="4"/>
<circle fill="#CC3311" stroke="#FFFFFF" cx="477.5" cy="61.066" r="4"/>
<circle fill="#CC3311" stroke="#FFFFFF" cx="525.5" cy="50.8" r="4"/>
<circle fill="#CC3311" stroke="#FFFFFF" cx="572.5" cy="33.066" r="4"/>
<path display="none" fill="#FFFFFF" stroke="#474747" stroke-width="2" d="M15.5,10.5h90c2.761,0,5,2.239,5,5v30
	c0,2.761-2.239,5-5,5h-90c-2.762,0-5-2.239-5-5v-30C10.5,12.739,12.739,10.5,15.5,10.5z"/>
<text transform="matrix(1 0 0 1 579.1572 29.9736)" fill="#FFFFFF" font-family="'ArialMT'" font-size="10">258</text>
<text transform="matrix(1 0 0 1 579.1572 66.5469)" fill="#FFFFFF" font-family="'ArialMT'" font-size="10">224</text>
<text transform="matrix(1 0 0 1 579.1572 103.1201)" fill="#FFFFFF" font-family="'ArialMT'" font-size="10">190</text>
<text transform="matrix(1 0 0 1 579.1572 139.6934)" fill="#FFFFFF" font-family="'ArialMT'" font-size="10">156</text>
<text transform="matrix(1 0 0 1 579.1572 176.2666)" fill="#FFFFFF" font-family="'ArialMT'" font-size="10">122</text>
<text transform="matrix(1 0 0 1 581.9375 212.8398)" fill="#FFFFFF" font-family="'ArialMT'" font-size="10">88</text>
<text transform="matrix(1 0 0 1 581.9375 249.4131)" fill="#FFFFFF" font-family="'ArialMT'" font-size="10">54</text>
<text transform="matrix(1 0 0 1 581.9375 285.9863)" fill="#FFFFFF" font-family="'ArialMT'" font-size="10">20</text>
<text transform="matrix(-1.836970e-016 -1 1 -1.836970e-016 615.999 179.7246)" fill="#FFFFFF" font-family="'ArialMT'" font-size="10">Rainfall (mm)</text>
<path opacity="0.7" fill="none" stroke="#3399CC" stroke-width="4" stroke-linejoin="round" enable-background="new    " d="
	M50.5,28.39l47-7.89l48,29.727l47,70.78l48,34.422l47,17.104l48,63.142l47-2.043l48-10.649l47-59.484l48-47.653l47-27.322"/>
<path opacity="0.2" enable-background="new    " d="M50.5,300.5"/>
<circle fill="#3399CC" stroke="#FFFFFF" cx="50.5" cy="28.39" r="4"/>
<circle fill="#3399CC" stroke="#FFFFFF" cx="97.5" cy="20.5" r="4"/>
<circle fill="#3399CC" stroke="#FFFFFF" cx="145.5" cy="50.227" r="4"/>
<circle fill="#3399CC" stroke="#FFFFFF" cx="192.5" cy="121.006" r="4"/>
<circle fill="#3399CC" stroke="#FFFFFF" cx="240.5" cy="155.428" r="4"/>
<circle fill="#3399CC" stroke="#FFFFFF" cx="287.5" cy="172.531" r="4"/>
<circle fill="#3399CC" stroke="#FFFFFF" cx="335.5" cy="235.674" r="4"/>
<circle fill="#3399CC" stroke="#FFFFFF" cx="382.5" cy="233.631" r="4"/>
<circle fill="#3399CC" stroke="#FFFFFF" cx="430.5" cy="222.98" r="4"/>
<circle fill="#3399CC" stroke="#FFFFFF" cx="477.5" cy="163.496" r="4"/>
<circle fill="#3399CC" stroke="#FFFFFF" cx="525.5" cy="115.843" r="4"/>
<circle fill="#3399CC" stroke="#FFFFFF" cx="572.5" cy="88.521" r="4"/>
<path display="none" fill="#FFFFFF" stroke="#474747" stroke-width="2" d="M15.5,10.5h90c2.761,0,5,2.239,5,5v30
	c0,2.761-2.239,5-5,5h-90c-2.762,0-5-2.239-5-5v-30C10.5,12.739,12.739,10.5,15.5,10.5z"/>
<path display="none" fill="#FFFFFF" stroke="#474747" stroke-width="2" d="M69.5,81.5h140c2.761,0,5,2.239,5,5v75
	c0,2.761-2.239,5-5,5h-140c-2.762,0-5-2.239-5-5v-75C64.5,83.739,66.739,81.5,69.5,81.5z"/>
<line fill="none" stroke="#33CC99" stroke-width="2" x1="287.5" y1="238.666" x2="287.5" y2="322.5"/>
<text transform="matrix(1 0 0 1 303.5 325.5)" fill="#33CC99" font-family="'MyriadPro-Regular'" font-size="10">- 2.6  °C  min. temp (2004)</text>
<line fill="none" stroke="#33CC99" stroke-width="2" x1="276.5" y1="322.5" x2="299.5" y2="322.5"/>
<text transform="matrix(1 0 0 1 54.5 128.0059)" fill="#33CC99" font-family="'ArialMT'" font-size="10">Mean min. temp. (°C)</text>
<text transform="matrix(1 0 0 1 400.5 50.7998)" fill="#CC3311" font-family="'ArialMT'" font-size="10">Mean max. temp. (°C)</text>
<text transform="matrix(1 0 0 1 473.5 92.5215)" fill="#3399CC" font-family="'ArialMT'" font-size="10">Mean rainfall (mm)</text>
<path fill="none" stroke="#DDDDDD" stroke-dasharray="1,3" d="M50.5,279.666h522"/>
</svg>
